<svg xmlns="http://www.w3.org/2000/svg" xmlns:xlink="http://www.w3.org/1999/xlink" width="80" height="80" viewBox="0 0 80 80">
  <defs>
    <clipPath id="clip-path">
      <rect id="사각형_1594" data-name="사각형 1594" width="75.207" height="63.094" transform="translate(0 0)" fill="none"/>
    </clipPath>
  </defs>
  <g id="icon_feature12_bw" transform="translate(-40 -289)">
    <rect id="사각형_1586" data-name="사각형 1586" width="80" height="80" transform="translate(40 289)" fill="none"/>
    <g id="그룹_743" data-name="그룹 743" transform="translate(42.396 297.453)">
      <g id="그룹_742" data-name="그룹 742" clip-path="url(#clip-path)">
        <path id="패스_300" data-name="패스 300" d="M74.492,52.417,67.154,22.695a8.3,8.3,0,0,0-10.773-5.988l-6.256,2.136a8.262,8.262,0,0,0-2.785,1.618H27.867a8.258,8.258,0,0,0-2.784-1.618l-6.256-2.136A8.305,8.305,0,0,0,8.053,22.695L.715,52.417a8.3,8.3,0,0,0,15.637,5.339l6.108-11.3H52.747l6.108,11.3a8.3,8.3,0,0,0,15.637-5.339" fill="none"/>
        <path id="패스_301" data-name="패스 301" d="M74.492,52.417,67.154,22.695a8.3,8.3,0,0,0-10.773-5.988l-6.256,2.136a8.262,8.262,0,0,0-2.785,1.618H27.867a8.258,8.258,0,0,0-2.784-1.618l-6.256-2.136A8.305,8.305,0,0,0,8.053,22.695L.715,52.417a8.3,8.3,0,0,0,15.637,5.339l6.108-11.3H52.747l6.108,11.3a8.3,8.3,0,0,0,15.637-5.339Z" fill="none" stroke="#fff" stroke-width="1"/>
        <path id="패스_302" data-name="패스 302" d="M29.038,29.628H24.371V24.961H19.705v4.667H15.038v4.667h4.667v4.666h4.666V34.295h4.667Z" fill="#4026ee"/>
        <path id="패스_303" data-name="패스 303" d="M56.324,27.247a2.286,2.286,0,1,1-2.286-2.286,2.286,2.286,0,0,1,2.286,2.286" fill="#4026ee"/>
        <path id="패스_304" data-name="패스 304" d="M56.324,38.675a2.286,2.286,0,1,1-2.286-2.286,2.286,2.286,0,0,1,2.286,2.286" fill="#4026ee"/>
        <path id="패스_305" data-name="패스 305" d="M48.324,30.675a2.285,2.285,0,1,1-2.286,2.286,2.286,2.286,0,0,1,2.286-2.286" fill="#4026ee"/>
        <path id="패스_306" data-name="패스 306" d="M59.753,30.675a2.285,2.285,0,1,1-2.286,2.286,2.286,2.286,0,0,1,2.286-2.286" fill="#4026ee"/>
        <path id="패스_307" data-name="패스 307" d="M37.538,20.961V6.461a6,6,0,0,1,12,0,3.8,3.8,0,0,0,3.8,3.8h2.2" fill="none" stroke="#fff" stroke-width="0.922"/>
      </g>
    </g>
  </g>
</svg>
