<svg xmlns="http://www.w3.org/2000/svg" xmlns:xlink="http://www.w3.org/1999/xlink" width="80" height="80" viewBox="0 0 80 80">
  <defs>
    <clipPath id="clip-path">
      <rect id="사각형_1601" data-name="사각형 1601" width="68.533" height="47.711" fill="none"/>
    </clipPath>
  </defs>
  <g id="icon_feature05_bw" transform="translate(-40 -289)">
    <rect id="사각형_1586" data-name="사각형 1586" width="80" height="80" transform="translate(40 289)" fill="none"/>
    <g id="그룹_646" data-name="그룹 646" transform="translate(46 305.145)">
      <g id="그룹_645" data-name="그룹 645" clip-path="url(#clip-path)">
        <path id="패스_308" data-name="패스 308" d="M34.45,22.54l-.515.278H33a.654.654,0,0,1-.729-.624V7.769a.624.624,0,0,0-.624-.624H19.155c-1.415.981-1.389,2.169-.784,3a2.948,2.948,0,0,1-.218,3.644,2.844,2.844,0,0,1-4.785-2.031,2.72,2.72,0,0,1,.433-1.474l.009-.013A2.854,2.854,0,0,0,14.116,8c-.114-.424-1.273-.859-1.45-.859H.624A.624.624,0,0,0,0,7.769V40.633a.624.624,0,0,0,.624.624H9.318a.633.633,0,0,1,.62.594,6.454,6.454,0,0,0,12.853,0,.628.628,0,0,1,.616-.593H31.65a.618.618,0,0,0,.618-.624V26.208a.624.624,0,0,1,.624-.624h.922a.809.809,0,0,1,.649.3,2.744,2.744,0,0,0,2.184,1.087,2.835,2.835,0,0,0,2.1-4.69.821.821,0,0,0-.187-.185,2.87,2.87,0,0,0-4.112.448" fill="#4026ee"/>
        <path id="패스_309" data-name="패스 309" d="M57.919,7.145c0-.077.012-.153.012-.23a6.454,6.454,0,0,0-12.908,0c0,.077.009.153.012.23H34.882V18.991a5.885,5.885,0,0,1,5.769,1.156,2.34,2.34,0,0,1,.532.582c2.8,4.4-.291,9-4.457,9a5.493,5.493,0,0,1-1.844-.322V41.257h33.19V7.145Z" fill="none" stroke="#fff" stroke-width="0.922"/>
      </g>
    </g>
  </g>
</svg>
