<svg xmlns="http://www.w3.org/2000/svg" xmlns:xlink="http://www.w3.org/1999/xlink" width="80" height="80" viewBox="0 0 80 80">
  <defs>
    <clipPath id="clip-path">
      <rect id="사각형_1593" data-name="사각형 1593" width="65" height="59.5" fill="none"/>
    </clipPath>
  </defs>
  <g id="icon_feature01_bw" transform="translate(-40 -289)">
    <rect id="사각형_1586" data-name="사각형 1586" width="80" height="80" transform="translate(40 289)" fill="none"/>
    <g id="그룹_632" data-name="그룹 632" transform="translate(47.5 299.25)">
      <path id="패스_291" data-name="패스 291" d="M13,54H3V18H13Zm1-37H2V55H14Z" fill="#fff"/>
      <rect id="사각형_1590" data-name="사각형 1590" width="12" height="25" transform="translate(18 30)" fill="#4026ee"/>
      <path id="패스_292" data-name="패스 292" d="M45,54H35V15H45Zm1-40H34V55H46Z" fill="#fff"/>
      <rect id="사각형_1591" data-name="사각형 1591" width="12" height="34" transform="translate(50 21)" fill="#4026ee"/>
      <rect id="사각형_1592" data-name="사각형 1592" width="65" height="1" transform="translate(0 58.5)" fill="#fff"/>
      <g id="그룹_631" data-name="그룹 631">
        <g id="그룹_630" data-name="그룹 630" clip-path="url(#clip-path)">
          <path id="패스_293" data-name="패스 293" d="M9,7A2,2,0,1,1,7,5,2,2,0,0,1,9,7" fill="#4026ee"/>
          <path id="패스_294" data-name="패스 294" d="M26,22a2,2,0,1,1-2-2,2,2,0,0,1,2,2" fill="#4026ee"/>
          <path id="패스_295" data-name="패스 295" d="M42,2a2,2,0,1,1-2-2,2,2,0,0,1,2,2" fill="#4026ee"/>
          <path id="패스_296" data-name="패스 296" d="M58,14a2,2,0,1,1-2-2,2,2,0,0,1,2,2" fill="#4026ee"/>
          <path id="패스_297" data-name="패스 297" d="M8,8.176,24,22,40,2,56,14" fill="none" stroke="#4026ee" stroke-width="1"/>
        </g>
      </g>
    </g>
  </g>
</svg>
