<svg xmlns="http://www.w3.org/2000/svg" xmlns:xlink="http://www.w3.org/1999/xlink" width="80" height="80" viewBox="0 0 80 80">
  <defs>
    <clipPath id="clip-path">
      <rect id="사각형_1603" data-name="사각형 1603" width="80" height="72.5" transform="translate(0 0)" fill="none"/>
    </clipPath>
  </defs>
  <g id="icon_feature06_bw" transform="translate(-40 -289)">
    <rect id="사각형_1586" data-name="사각형 1586" width="80" height="80" transform="translate(40 289)" fill="none"/>
    <g id="그룹_648" data-name="그룹 648" transform="translate(40 292.75)">
      <g id="그룹_647" data-name="그룹 647" clip-path="url(#clip-path)">
        <circle id="타원_10" data-name="타원 10" cx="30" cy="30" r="30" transform="translate(10 0.5)" fill="none" stroke="#fff" stroke-width="1"/>
        <path id="패스_310" data-name="패스 310" d="M40,15l4.408,8.932,9.858,1.433-7.133,6.953,1.684,9.817L40,37.5l-8.817,4.635,1.684-9.817-7.133-6.953,9.858-1.433Z" fill="none" stroke="#fff" stroke-width="1"/>
        <circle id="타원_11" data-name="타원 11" cx="25" cy="25" r="25" transform="translate(15 5.5)" fill="none" stroke="#fff" stroke-width="1" stroke-dasharray="4 4"/>
        <path id="패스_311" data-name="패스 311" d="M25,55.75H0L6,64,0,72.25H25l-14-8H25Z" fill="#4026ee"/>
        <path id="패스_312" data-name="패스 312" d="M74,64l6-8.25H55V64.5H68L55.406,72.25H80Z" fill="#4026ee"/>
        <path id="패스_313" data-name="패스 313" d="M55,72.5l.406-.25H55Z" fill="#4026ee"/>
        <rect id="사각형_1602" data-name="사각형 1602" width="66" height="16.5" transform="translate(7 47.75)" fill="#4026ee"/>
        <path id="패스_314" data-name="패스 314" d="M26.973,56.9a2.037,2.037,0,0,1,.447,1.3,2.093,2.093,0,0,1-.323,1.161,2.168,2.168,0,0,1-.937.783,3.435,3.435,0,0,1-1.448.282H21.168V52.2h3.39A3.509,3.509,0,0,1,26,52.471a2.051,2.051,0,0,1,.919.753,1.973,1.973,0,0,1,.311,1.1,1.878,1.878,0,0,1-.382,1.2,2.051,2.051,0,0,1-1.019.682,1.85,1.85,0,0,1,1.143.694m-4.157-1.306h1.507a1.383,1.383,0,0,0,.907-.265.933.933,0,0,0,.318-.76.948.948,0,0,0-.318-.765,1.357,1.357,0,0,0-.907-.271H22.816Zm2.6,3.2a.984.984,0,0,0,.336-.8,1.029,1.029,0,0,0-.354-.831,1.426,1.426,0,0,0-.953-.3H22.816v2.214h1.66a1.412,1.412,0,0,0,.936-.283" fill="#fff"/>
        <path id="패스_315" data-name="패스 315" d="M32.976,60.417l-1.813-3.2h-.777v3.2H28.738V52.2h3.085a3.6,3.6,0,0,1,1.625.336,2.339,2.339,0,0,1,1.006.906,2.559,2.559,0,0,1-.135,2.744,2.424,2.424,0,0,1-1.4.9l1.967,3.332Zm-2.59-4.438h1.378a1.375,1.375,0,0,0,1-.324,1.2,1.2,0,0,0,.33-.9,1.148,1.148,0,0,0-.33-.877,1.408,1.408,0,0,0-1-.312H30.386Z" fill="#fff"/>
        <path id="패스_316" data-name="패스 316" d="M41.324,58.852H38.051l-.541,1.566H35.778l2.956-8.231h1.919l2.955,8.231H41.866Zm-.447-1.319L39.688,54.1,38.5,57.533Z" fill="#fff"/>
        <path id="패스_317" data-name="패스 317" d="M51.746,60.418H50.1l-3.733-5.64v5.64H44.717v-8.23h1.648L50.1,57.84V52.188h1.648Z" fill="#fff"/>
        <path id="패스_318" data-name="패스 318" d="M58.521,52.706a3.613,3.613,0,0,1,1.518,1.442,4.288,4.288,0,0,1,.537,2.172,4.225,4.225,0,0,1-.537,2.161,3.643,3.643,0,0,1-1.518,1.431,4.926,4.926,0,0,1-2.278.505H53.37V52.2h2.873a4.9,4.9,0,0,1,2.278.507m-.336,5.6a2.687,2.687,0,0,0,.707-1.99,2.746,2.746,0,0,0-.707-2.007,2.667,2.667,0,0,0-2-.725H55.018v5.428h1.166a2.706,2.706,0,0,0,2-.706" fill="#fff"/>
      </g>
    </g>
  </g>
</svg>
