<svg xmlns="http://www.w3.org/2000/svg" xmlns:xlink="http://www.w3.org/1999/xlink" width="80" height="80" viewBox="0 0 80 80">
  <defs>
    <clipPath id="clip-path">
      <rect id="사각형_1594" data-name="사각형 1594" width="70.521" height="62" fill="none"/>
    </clipPath>
  </defs>
  <g id="icon_feature02_bw" transform="translate(-40 -289)">
    <rect id="사각형_1586" data-name="사각형 1586" width="80" height="80" transform="translate(40 289)" fill="none"/>
    <g id="그룹_634" data-name="그룹 634" transform="translate(46 300)">
      <g id="그룹_633" data-name="그룹 633" clip-path="url(#clip-path)">
        <path id="패스_298" data-name="패스 298" d="M28.52,1A12.813,12.813,0,1,1,15.707,13.813,12.828,12.828,0,0,1,28.52,1m0-1A13.813,13.813,0,1,0,42.333,13.813,13.813,13.813,0,0,0,28.52,0" fill="#fff"/>
        <path id="패스_299" data-name="패스 299" d="M40.394,59.894H.5A28.019,28.019,0,0,1,38.017,33.553" fill="none" stroke="#fff" stroke-width="1"/>
        <path id="패스_300" data-name="패스 300" d="M70.521,49.706V41.941H68.04a14.167,14.167,0,0,0-1.335-3.176l1.957-1.958-5.49-5.491-2.009,2.009a14.13,14.13,0,0,0-2.936-1.2V29H50.462v3.129a14.163,14.163,0,0,0-2.76,1.1l-2.374-2.374-5.491,5.49L42.083,38.6a14.121,14.121,0,0,0-1.233,2.7H37.521v7.765h2.962a14.1,14.1,0,0,0,1.052,2.979L39.38,54.193l5.49,5.491,1.845-1.845a14.185,14.185,0,0,0,3.1,1.48V62H57.58V59.685a14.123,14.123,0,0,0,3.407-1.271l1.727,1.727,5.491-5.49-1.6-1.6a14.18,14.18,0,0,0,1.433-3.347ZM58.68,52.47C51.17,56.631,43.537,49,47.7,41.489a5.954,5.954,0,0,1,2.312-2.312c7.509-4.16,15.142,3.472,10.981,10.982A5.956,5.956,0,0,1,58.68,52.47" fill="#4026ee"/>
      </g>
    </g>
  </g>
</svg>
