<svg xmlns="http://www.w3.org/2000/svg" xmlns:xlink="http://www.w3.org/1999/xlink" width="81" height="80" viewBox="0 0 81 80">
  <defs>
    <clipPath id="clip-path">
      <rect id="사각형_1618" data-name="사각형 1618" width="81" height="57.5" fill="none"/>
    </clipPath>
  </defs>
  <g id="icon_feature11_bw" transform="translate(-40 -289)">
    <rect id="사각형_1586" data-name="사각형 1586" width="80" height="80" transform="translate(40 289)" fill="none"/>
    <g id="그룹_675" data-name="그룹 675" transform="translate(40 300)">
      <g id="그룹_674" data-name="그룹 674" clip-path="url(#clip-path)">
        <path id="패스_354" data-name="패스 354" d="M76.766,47H4.234A3.734,3.734,0,0,1,.5,43.266V35.734A3.734,3.734,0,0,1,4.234,32H76.766A3.734,3.734,0,0,1,80.5,35.734v7.532A3.734,3.734,0,0,1,76.766,47" fill="#020a13"/>
        <rect id="사각형_1617" data-name="사각형 1617" width="80" height="15" rx="3.734" transform="translate(0.5 32)" fill="none" stroke="#fff" stroke-width="1"/>
        <path id="패스_355" data-name="패스 355" d="M66.184,57H54.1a6.309,6.309,0,0,1-4.128-1.536l-4.5-3.883a6.318,6.318,0,0,0-8.279.019l-4.411,3.845A6.313,6.313,0,0,1,28.634,57H15.817A6.317,6.317,0,0,1,9.5,50.684V29.316A6.317,6.317,0,0,1,15.817,23H66.184A6.315,6.315,0,0,1,72.5,29.316V50.684A6.315,6.315,0,0,1,66.184,57" fill="#020a13"/>
        <path id="패스_356" data-name="패스 356" d="M66.184,57H54.1a6.309,6.309,0,0,1-4.128-1.536l-4.5-3.883a6.318,6.318,0,0,0-8.279.019l-4.411,3.845A6.313,6.313,0,0,1,28.634,57H15.817A6.317,6.317,0,0,1,9.5,50.684V29.316A6.317,6.317,0,0,1,15.817,23H66.184A6.315,6.315,0,0,1,72.5,29.316V50.684A6.315,6.315,0,0,1,66.184,57Z" fill="none" stroke="#fff" stroke-width="1"/>
        <path id="패스_357" data-name="패스 357" d="M41.579,31.127a1.774,1.774,0,0,1-1.494-1L38.85,27.989a8.716,8.716,0,0,0-3.4-3.35,12.78,12.78,0,0,1-6.773-11.6A12.969,12.969,0,0,1,41.135.5c.122,0,.243,0,.364,0a12.828,12.828,0,0,1,6.082,24.124,8.817,8.817,0,0,0-3.432,3.365l-1.42,2.46a1.319,1.319,0,0,1-1.149.678Z" fill="#4026ee"/>
        <path id="패스_358" data-name="패스 358" d="M41.5,1a12.328,12.328,0,0,1,5.844,23.184,9.3,9.3,0,0,0-3.627,3.555L42.3,30.2a.819.819,0,0,1-.717.428,1.292,1.292,0,0,1-1.062-.749l-1.235-2.139a9.217,9.217,0,0,0-3.6-3.541,12.319,12.319,0,0,1-6.51-11.147A12.464,12.464,0,0,1,41.149,1c.118,0,.234,0,.351,0m0-1c-.126,0-.252,0-.379,0A13.475,13.475,0,0,0,28.174,13.029,13.28,13.28,0,0,0,35.211,25.08a8.207,8.207,0,0,1,3.206,3.159l1.235,2.139a2.259,2.259,0,0,0,1.927,1.249,1.819,1.819,0,0,0,1.584-.928l1.42-2.46a8.3,8.3,0,0,1,3.235-3.175A13.328,13.328,0,0,0,41.5,0" fill="#fff"/>
        <line id="선_26" data-name="선 26" x2="30" transform="translate(26.5 39)" fill="none" stroke="#fff" stroke-width="1"/>
        <path id="패스_359" data-name="패스 359" d="M46.173,14.1,38.415,9.622V18.58Z" fill="#fff"/>
      </g>
    </g>
  </g>
</svg>
