<svg xmlns="http://www.w3.org/2000/svg" xmlns:xlink="http://www.w3.org/1999/xlink" width="80" height="80" viewBox="0 0 80 80">
  <defs>
    <clipPath id="clip-path">
      <rect id="사각형_1616" data-name="사각형 1616" width="73" height="64.866" transform="translate(0 0)" fill="none"/>
    </clipPath>
  </defs>
  <g id="icon_feature10_bw" transform="translate(-40 -289)">
    <rect id="사각형_1586" data-name="사각형 1586" width="80" height="80" transform="translate(40 289)" fill="none"/>
    <g id="그룹_673" data-name="그룹 673" transform="translate(43.5 299)">
      <path id="패스_347" data-name="패스 347" d="M14.339,25.339v35.2h39.33l.671,4.33,5.384-4.33H73v-35.2Z" fill="#4026ee"/>
      <path id="패스_348" data-name="패스 348" d="M.5.5V35.7H13.775l5.385,4.331.671-4.331h39.33V.5Z" fill="#020a13"/>
      <g id="그룹_672" data-name="그룹 672">
        <g id="그룹_671" data-name="그룹 671" clip-path="url(#clip-path)">
          <path id="패스_349" data-name="패스 349" d="M59.161.5H.5V35.7H13.775l5.385,4.33.671-4.33h39.33Z" fill="none" stroke="#fff" stroke-width="1"/>
          <path id="패스_350" data-name="패스 350" d="M35.225,11.047a4.737,4.737,0,0,1,1.524,3.731,4.367,4.367,0,0,1-1.512,3.589A6.136,6.136,0,0,1,31.229,19.6l-.1,1.849H28.181l-.12-4.08h1.08a7.5,7.5,0,0,0,3.216-.552A2.04,2.04,0,0,0,33.485,14.8a2.3,2.3,0,0,0-.612-1.681A2.229,2.229,0,0,0,31.2,12.5a2.347,2.347,0,0,0-1.716.6,2.214,2.214,0,0,0-.612,1.656H25.709a5.062,5.062,0,0,1,.624-2.615,4.461,4.461,0,0,1,1.908-1.8A6.4,6.4,0,0,1,31.2,9.69a5.828,5.828,0,0,1,4.02,1.357m-7.08,15.576a1.97,1.97,0,0,1,0-2.808,2.079,2.079,0,0,1,1.5-.564,2.006,2.006,0,0,1,1.464.564,2,2,0,0,1,0,2.808,2.005,2.005,0,0,1-1.464.563,2.078,2.078,0,0,1-1.5-.563" fill="#fff"/>
          <path id="패스_351" data-name="패스 351" d="M35,44.587a2,2,0,1,1-2-2,2,2,0,0,1,2,2" fill="#fff"/>
          <path id="패스_352" data-name="패스 352" d="M46,44.587a2,2,0,1,1-2-2,2,2,0,0,1,2,2" fill="#fff"/>
          <path id="패스_353" data-name="패스 353" d="M57,44.587a2,2,0,1,1-2-2,2,2,0,0,1,2,2" fill="#fff"/>
        </g>
      </g>
    </g>
  </g>
</svg>
