<svg xmlns="http://www.w3.org/2000/svg" xmlns:xlink="http://www.w3.org/1999/xlink" width="80" height="81" viewBox="0 0 80 81">
  <defs>
    <clipPath id="clip-path">
      <rect id="사각형_1615" data-name="사각형 1615" width="71" height="80" fill="none"/>
    </clipPath>
  </defs>
  <g id="icon_feature09_bw" transform="translate(-40 -289)">
    <rect id="사각형_1586" data-name="사각형 1586" width="80" height="80" transform="translate(40 289)" fill="none"/>
    <g id="그룹_670" data-name="그룹 670" transform="translate(44 290)">
      <path id="패스_339" data-name="패스 339" d="M68,58.456V21.506L36,3.03,4,21.506v36.95L36,76.931Z" fill="none" stroke="#fff" stroke-width="1"/>
      <line id="선_17" data-name="선 17" x2="1.73" y2="1.004" transform="translate(4.5 21.5)" fill="none" stroke="#fff" stroke-width="1"/>
      <line id="선_18" data-name="선 18" x2="53.375" y2="30.992" transform="translate(9.673 24.504)" fill="none" stroke="#fff" stroke-width="1" stroke-dasharray="3.982 3.982"/>
      <line id="선_19" data-name="선 19" x2="1.73" y2="1.004" transform="translate(64.77 56.496)" fill="none" stroke="#fff" stroke-width="1"/>
      <line id="선_20" data-name="선 20" x1="1.73" y2="1.004" transform="translate(65.77 21.5)" fill="none" stroke="#fff" stroke-width="1"/>
      <line id="선_21" data-name="선 21" x1="53.375" y2="30.992" transform="translate(8.952 24.504)" fill="none" stroke="#fff" stroke-width="1" stroke-dasharray="3.982 3.982"/>
      <line id="선_22" data-name="선 22" x1="1.73" y2="1.004" transform="translate(5.5 56.496)" fill="none" stroke="#fff" stroke-width="1"/>
      <g id="그룹_669" data-name="그룹 669">
        <g id="그룹_668" data-name="그룹 668" clip-path="url(#clip-path)">
          <path id="패스_340" data-name="패스 340" d="M9,21.5A4.5,4.5,0,1,1,4.5,17,4.5,4.5,0,0,1,9,21.5" fill="#4026ee"/>
          <path id="패스_341" data-name="패스 341" d="M71,21.5A4.5,4.5,0,1,1,66.5,17,4.5,4.5,0,0,1,71,21.5" fill="#4026ee"/>
          <path id="패스_342" data-name="패스 342" d="M10,58.5A4.5,4.5,0,1,1,5.5,54,4.5,4.5,0,0,1,10,58.5" fill="#4026ee"/>
          <path id="패스_343" data-name="패스 343" d="M71,57.5A4.5,4.5,0,1,1,66.5,53,4.5,4.5,0,0,1,71,57.5" fill="#4026ee"/>
          <line id="선_23" data-name="선 23" x2="0.005" y2="2" transform="translate(35.826 6.366)" fill="none" stroke="#fff" stroke-width="1"/>
          <line id="선_24" data-name="선 24" x2="0.152" y2="61.721" transform="translate(35.841 12.348)" fill="none" stroke="#fff" stroke-width="1" stroke-dasharray="3.982 3.982"/>
          <line id="선_25" data-name="선 25" x2="0.005" y2="2" transform="translate(35.998 76.06)" fill="none" stroke="#fff" stroke-width="1"/>
          <path id="패스_344" data-name="패스 344" d="M40,4.5A4.5,4.5,0,1,1,35.5,0,4.5,4.5,0,0,1,40,4.5" fill="#4026ee"/>
          <path id="패스_345" data-name="패스 345" d="M40,75.5A4.5,4.5,0,1,1,35.5,71,4.5,4.5,0,0,1,40,75.5" fill="#4026ee"/>
          <path id="패스_346" data-name="패스 346" d="M48,40A12,12,0,1,1,36,28,12,12,0,0,1,48,40" fill="#4026ee"/>
        </g>
      </g>
    </g>
  </g>
</svg>
